<svg xmlns="http://www.w3.org/2000/svg" version="1.1" xmlns:xlink="http://www.w3.org/1999/xlink" width="88.703px" height="88.703px"><svg xmlns="http://www.w3.org/2000/svg" version="1.1" xmlns:xlink="http://www.w3.org/1999/xlink" width="88.703px" height="88.703px"><svg xmlns="http://www.w3.org/2000/svg" viewBox="264.3842 138.9135 88.703 88.703" width="88.703px" height="88.703px"><g id="object-1" transform="matrix(1, 0, 0, 1, 20.337154388427706, 5.01649808883667)"><rect x="244.047" y="133.897" width="88.703" height="88.703" style="stroke: rgb(0, 0, 0);" rx="0.727" ry="0.727" id="object-0"></rect><path d="M 269.041 154.341 L 266.577 154.341 L 266.577 171.029 L 255.909 154.341 L 253.081 154.341 L 253.081 174.753 L 255.545 174.753 L 255.545 158.205 L 266.101 174.753 L 269.041 174.753 L 269.041 154.341 Z M 276.291 165.457 L 287.407 165.457 L 287.407 163.161 L 276.291 163.161 L 276.291 156.637 L 287.827 156.637 L 287.827 154.341 L 273.687 154.341 L 273.687 174.753 L 288.331 174.753 L 288.331 172.457 L 276.291 172.457 L 276.291 165.457 Z M 299.474 156.637 L 306.166 156.637 L 306.166 154.341 L 290.15 154.341 L 290.15 156.637 L 296.87 156.637 L 296.87 174.753 L 299.474 174.753 L 299.474 156.637 Z" style="fill: rgb(255, 255, 255); text-wrap-mode: nowrap;"></path><path d="M 267.949 188.557 C 267.921 184.329 265.093 182.005 259.941 182.005 C 255.041 182.005 252.213 184.301 252.213 188.277 C 252.213 191.441 253.809 192.981 257.953 193.765 L 260.809 194.325 C 263.609 194.857 264.645 195.641 264.645 197.293 C 264.645 199.001 263.077 200.037 260.529 200.037 C 257.673 200.037 256.077 198.833 255.937 196.649 L 251.849 196.649 C 252.101 201.017 255.097 203.397 260.305 203.397 C 265.569 203.397 268.677 200.961 268.677 196.789 C 268.677 193.569 267.053 191.889 263.273 191.161 L 260.081 190.545 C 257.085 189.957 256.217 189.369 256.217 187.885 C 256.217 186.345 257.561 185.365 259.745 185.365 C 262.405 185.365 263.889 186.485 264.029 188.557 L 267.949 188.557 Z M 275.171 187.633 L 271.251 187.633 L 271.251 208.857 L 275.171 208.857 L 275.171 200.961 C 276.123 202.641 277.467 203.425 279.371 203.425 C 283.011 203.425 285.699 200.009 285.699 195.417 C 285.699 193.289 285.083 191.161 284.075 189.761 C 283.067 188.333 281.191 187.381 279.371 187.381 C 277.467 187.381 276.123 188.193 275.171 189.873 L 275.171 187.633 Z M 278.475 190.657 C 280.463 190.657 281.779 192.561 281.779 195.473 C 281.779 198.245 280.435 200.149 278.475 200.149 C 276.487 200.149 275.171 198.245 275.171 195.417 C 275.171 192.561 276.487 190.657 278.475 190.657 Z M 292.53 187.633 L 288.61 187.633 L 288.61 202.753 L 292.53 202.753 L 292.53 187.633 Z M 292.53 182.341 L 288.61 182.341 L 288.61 185.841 L 292.53 185.841 L 292.53 182.341 Z M 309.135 193.289 C 308.855 189.593 306.419 187.381 302.611 187.381 C 298.075 187.381 295.471 190.349 295.471 195.501 C 295.471 200.485 298.075 203.397 302.555 203.397 C 306.223 203.397 308.771 201.129 309.135 197.517 L 305.383 197.517 C 304.907 199.477 304.123 200.233 302.555 200.233 C 300.567 200.233 299.391 198.469 299.391 195.501 C 299.391 194.045 299.671 192.729 300.147 191.833 C 300.595 190.993 301.463 190.545 302.583 190.545 C 304.179 190.545 304.935 191.301 305.383 193.289 L 309.135 193.289 Z M 324.954 196.425 C 324.982 196.089 324.982 195.949 324.982 195.753 C 324.982 194.241 324.758 192.841 324.394 191.777 C 323.386 189.033 320.95 187.381 317.898 187.381 C 313.558 187.381 310.898 190.517 310.898 195.585 C 310.898 200.429 313.53 203.397 317.814 203.397 C 321.202 203.397 323.946 201.493 324.814 198.497 L 320.95 198.497 C 320.474 199.701 319.382 200.401 317.954 200.401 C 316.834 200.401 315.938 199.925 315.378 199.085 C 315.014 198.525 314.874 197.853 314.818 196.425 L 324.954 196.425 Z M 314.874 193.821 C 315.126 191.497 316.106 190.377 317.842 190.377 C 319.634 190.377 320.698 191.581 320.894 193.821 L 314.874 193.821 Z" style="fill: rgb(255, 255, 255); text-wrap-mode: nowrap;"></path></g></svg></svg><style>@media (prefers-color-scheme: light) { :root { filter: none; } }
@media (prefers-color-scheme: dark) { :root { filter: none; } }
</style></svg>